# xmcd
#
# Track frame offsets:
#	180
#	12568
#	20788
#	26178
#	36489
#	46277
#	56721
#	71510
#	77942
#	89996
#	101729
#	117870
#	126314
#	136504
#	147523
#	155973
#	165815
#	180730
#	209259
#	230292
#	246244
#
# Disc length: 3420 seconds
#
# Revision: 0
# Processed by: cddbd v1.5.1PL2 Copyright (c) Steve Scherf et al.
# Submitted via: audiograbber 1.83.01
#
DISCID=380d5a15
DTITLE=Frank Sinatra - Duets with legends
DYEAR=1995
DGENRE=Easy Listening
TTITLE0=Tea for two (with Dinah Shore)
TTITLE1=Together (with Eileen Barton and The Vimms)
TTITLE2=Don't bring Lulu (with ack Carson)
TTITLE3=Parody melody (with Bing Crosby)
TTITLE4=There's no business like showbusiness (with Doris Day and The Hit Parader
TTITLE4=s)
TTITLE5=No can do (with Lena Romay)
TTITLE6=Some enchanted evening (with Janet Blair)
TTITLE7=Figaro (with Charles Ramirez)
TTITLE8=Make believe (with Jane Powell)
TTITLE9=Camptown races (with Lawrence Tibbet)
TTITLE10=Lover come back to me (with Dorothy Kirsten)
TTITLE11=Exactly like you (with Nat KIng Cole)
TTITLE12=Come out wherever you are (with Eileen Barton)
TTITLE13=Personality (with Van Johnson)
TTITLE14=Somebody loves me (with Pied Pipers)
TTITLE15=This can't be love (with Margaret Whiting)
TTITLE16=Yes indeed (with Sy Oliver)
TTITLE17=Among my souvenirs - September song - As time goes by (with Bing Crosby)
TTITLE18=Till we meet again - Meet me tonight in dreamland - There's a long long 
TTITLE18=trail (with Bing Crosby)
TTITLE19=Birth of the blues (with Louis Armstrong)
TTITLE20=You´d be so nice to come home to (with June Hutton)
EXTD=
EXTT0=
EXTT1=
EXTT2=
EXTT3=
EXTT4=
EXTT5=
EXTT6=
EXTT7=
EXTT8=
EXTT9=
EXTT10=
EXTT11=
EXTT12=
EXTT13=
EXTT14=
EXTT15=
EXTT16=
EXTT17=
EXTT18=
EXTT19=
EXTT20=
PLAYORDER=
